<?xml version="1.0" standalone="no"?>
<svg xmlns:xlink="http://www.w3.org/1999/xlink" id="wave" style="transform:rotate(0deg); transition: 0.3s" viewBox="0 0 1440 490" version="1.1" xmlns="http://www.w3.org/2000/svg"><defs><linearGradient id="sw-gradient-0" x1="0" x2="0" y1="1" y2="0"><stop stop-color="rgba(49, 109, 208, 1)" offset="0%"/><stop stop-color="rgba(29, 89, 202, 1)" offset="100%"/></linearGradient></defs><path style="transform:translate(0, 0px); opacity:1" fill="url(#sw-gradient-0)" d="M0,98L34.3,147C68.6,196,137,294,206,334.8C274.3,376,343,359,411,294C480,229,549,114,617,57.2C685.7,0,754,0,823,16.3C891.4,33,960,65,1029,73.5C1097.1,82,1166,65,1234,89.8C1302.9,114,1371,180,1440,228.7C1508.6,278,1577,310,1646,318.5C1714.3,327,1783,310,1851,285.8C1920,261,1989,229,2057,204.2C2125.7,180,2194,163,2263,130.7C2331.4,98,2400,49,2469,32.7C2537.1,16,2606,33,2674,65.3C2742.9,98,2811,147,2880,179.7C2948.6,212,3017,229,3086,269.5C3154.3,310,3223,376,3291,367.5C3360,359,3429,278,3497,228.7C3565.7,180,3634,163,3703,196C3771.4,229,3840,310,3909,294C3977.1,278,4046,163,4114,114.3C4182.9,65,4251,82,4320,130.7C4388.6,180,4457,261,4526,285.8C4594.3,310,4663,278,4731,261.3C4800,245,4869,245,4903,245L4937.1,245L4937.1,490L4902.9,490C4868.6,490,4800,490,4731,490C4662.9,490,4594,490,4526,490C4457.1,490,4389,490,4320,490C4251.4,490,4183,490,4114,490C4045.7,490,3977,490,3909,490C3840,490,3771,490,3703,490C3634.3,490,3566,490,3497,490C3428.6,490,3360,490,3291,490C3222.9,490,3154,490,3086,490C3017.1,490,2949,490,2880,490C2811.4,490,2743,490,2674,490C2605.7,490,2537,490,2469,490C2400,490,2331,490,2263,490C2194.3,490,2126,490,2057,490C1988.6,490,1920,490,1851,490C1782.9,490,1714,490,1646,490C1577.1,490,1509,490,1440,490C1371.4,490,1303,490,1234,490C1165.7,490,1097,490,1029,490C960,490,891,490,823,490C754.3,490,686,490,617,490C548.6,490,480,490,411,490C342.9,490,274,490,206,490C137.1,490,69,490,34,490L0,490Z"/><defs><linearGradient id="sw-gradient-1" x1="0" x2="0" y1="1" y2="0"><stop stop-color="rgba(30, 92, 205, 1)" offset="0%"/><stop stop-color="rgba(22, 75, 201, 1)" offset="100%"/></linearGradient></defs><path style="transform:translate(0, 50px); opacity:0.9" fill="url(#sw-gradient-1)" d="M0,441L34.3,441C68.6,441,137,441,206,392C274.3,343,343,245,411,245C480,245,549,343,617,334.8C685.7,327,754,212,823,163.3C891.4,114,960,131,1029,122.5C1097.1,114,1166,82,1234,81.7C1302.9,82,1371,114,1440,130.7C1508.6,147,1577,147,1646,138.8C1714.3,131,1783,114,1851,155.2C1920,196,1989,294,2057,326.7C2125.7,359,2194,327,2263,261.3C2331.4,196,2400,98,2469,106.2C2537.1,114,2606,229,2674,302.2C2742.9,376,2811,408,2880,375.7C2948.6,343,3017,245,3086,204.2C3154.3,163,3223,180,3291,196C3360,212,3429,229,3497,269.5C3565.7,310,3634,376,3703,383.8C3771.4,392,3840,343,3909,302.2C3977.1,261,4046,229,4114,212.3C4182.9,196,4251,196,4320,236.8C4388.6,278,4457,359,4526,383.8C4594.3,408,4663,376,4731,334.8C4800,294,4869,245,4903,220.5L4937.1,196L4937.1,490L4902.9,490C4868.6,490,4800,490,4731,490C4662.9,490,4594,490,4526,490C4457.1,490,4389,490,4320,490C4251.4,490,4183,490,4114,490C4045.7,490,3977,490,3909,490C3840,490,3771,490,3703,490C3634.3,490,3566,490,3497,490C3428.6,490,3360,490,3291,490C3222.9,490,3154,490,3086,490C3017.1,490,2949,490,2880,490C2811.4,490,2743,490,2674,490C2605.7,490,2537,490,2469,490C2400,490,2331,490,2263,490C2194.3,490,2126,490,2057,490C1988.6,490,1920,490,1851,490C1782.9,490,1714,490,1646,490C1577.1,490,1509,490,1440,490C1371.4,490,1303,490,1234,490C1165.7,490,1097,490,1029,490C960,490,891,490,823,490C754.3,490,686,490,617,490C548.6,490,480,490,411,490C342.9,490,274,490,206,490C137.1,490,69,490,34,490L0,490Z"/><defs><linearGradient id="sw-gradient-2" x1="0" x2="0" y1="1" y2="0"><stop stop-color="rgba(67, 122, 208, 1)" offset="0%"/><stop stop-color="rgba(49, 109, 208, 1)" offset="100%"/></linearGradient></defs><path style="transform:translate(0, 100px); opacity:0.8" fill="url(#sw-gradient-2)" d="M0,343L34.3,351.2C68.6,359,137,376,206,359.3C274.3,343,343,294,411,302.2C480,310,549,376,617,400.2C685.7,425,754,408,823,367.5C891.4,327,960,261,1029,245C1097.1,229,1166,261,1234,245C1302.9,229,1371,163,1440,187.8C1508.6,212,1577,327,1646,343C1714.3,359,1783,278,1851,277.7C1920,278,1989,359,2057,367.5C2125.7,376,2194,310,2263,236.8C2331.4,163,2400,82,2469,98C2537.1,114,2606,229,2674,269.5C2742.9,310,2811,278,2880,228.7C2948.6,180,3017,114,3086,98C3154.3,82,3223,114,3291,163.3C3360,212,3429,278,3497,277.7C3565.7,278,3634,212,3703,228.7C3771.4,245,3840,343,3909,367.5C3977.1,392,4046,343,4114,277.7C4182.9,212,4251,131,4320,106.2C4388.6,82,4457,114,4526,163.3C4594.3,212,4663,278,4731,294C4800,310,4869,278,4903,261.3L4937.1,245L4937.1,490L4902.9,490C4868.6,490,4800,490,4731,490C4662.9,490,4594,490,4526,490C4457.1,490,4389,490,4320,490C4251.4,490,4183,490,4114,490C4045.7,490,3977,490,3909,490C3840,490,3771,490,3703,490C3634.3,490,3566,490,3497,490C3428.6,490,3360,490,3291,490C3222.9,490,3154,490,3086,490C3017.1,490,2949,490,2880,490C2811.4,490,2743,490,2674,490C2605.7,490,2537,490,2469,490C2400,490,2331,490,2263,490C2194.3,490,2126,490,2057,490C1988.6,490,1920,490,1851,490C1782.9,490,1714,490,1646,490C1577.1,490,1509,490,1440,490C1371.4,490,1303,490,1234,490C1165.7,490,1097,490,1029,490C960,490,891,490,823,490C754.3,490,686,490,617,490C548.6,490,480,490,411,490C342.9,490,274,490,206,490C137.1,490,69,490,34,490L0,490Z"/></svg>