<svg width="29" height="28" viewBox="0 0 29 28" fill="none" xmlns="http://www.w3.org/2000/svg">
<path d="M6.91675 22.75C6.91675 22.75 11.0001 21 12.1667 19.8333C13.3334 18.6667 9.83341 18.6667 9.83341 12.8333C9.83341 7 14.5001 7 14.5001 7C14.5001 7 19.1667 7 19.1667 12.8333C19.1667 18.6667 15.6667 18.6667 16.8334 19.8333C18.0001 21 22.0834 22.75 22.0834 22.75" stroke="#232222" stroke-width="2" stroke-linecap="round"/>
<path fill-rule="evenodd" clip-rule="evenodd" d="M14.4999 25.6663C20.9432 25.6663 26.1666 20.443 26.1666 13.9997C26.1666 7.55635 20.9432 2.33301 14.4999 2.33301C8.0566 2.33301 2.83325 7.55635 2.83325 13.9997C2.83325 20.443 8.0566 25.6663 14.4999 25.6663Z" stroke="#232222" stroke-width="2"/>
</svg>
